<?xml version="1.0" encoding="utf-8"?>
<!-- Generator: Adobe Illustrator 24.0.0, SVG Export Plug-In . SVG Version: 6.00 Build 0)  -->
<svg version="1.1" id="レイヤー_1" xmlns="http://www.w3.org/2000/svg" xmlns:xlink="http://www.w3.org/1999/xlink" x="0px"
	 y="0px" viewBox="0 0 410 410" style="enable-background:new 0 0 410 410;" xml:space="preserve">
<style type="text/css">
	.st0{fill:#F9D2E4;}
	.st1{fill:#FFFFFF;}
	.st2{fill:#2EB9E2;}
</style>
<polygon class="st0" points="281.1003418,0.4855716 30.5891151,48.8884392 -0.511937,300.6694336 230.7777863,407.8757935 
	404.8237305,222.351944 "/>
<path class="st1" d="M-66.9669113,150.9652252C-49.1867561,56.4141426,57.7487907-1.3899655,144.6856842,28.4893074
	c63.2611084,21.742157,106.2929688,86.5994263,105,154c-1.6109619,83.9797211-71.7683105,158.0331268-155,159.9999847
	C-2.6039932,344.7883606-85.1809006,247.8234406-66.9669113,150.9652252z"/>
<g>
	<path d="M17.1857414,196.9892731c8.3149414-12.7441406,19.1987915-23.8592529,31.4854736-33.1235962
		c6.1643677-4.623291,12.7687378-8.6591187,19.6029625-12.2773438l5.232666-2.5046387
		c0.8789063-0.4031372,1.7362671-0.8564453,2.6335449-1.2180786l2.6871948-1.0969238
		c1.7971802-0.7171631,3.5834351-1.4675293,5.4014282-2.1298828l5.5108643-1.8337402
		c0.9210205-0.2977295,1.8380737-0.609314,2.7650757-0.8862305l2.8114014-0.7272339l5.6231079-1.447937
		c3.7897339-0.7842407,7.5840454-1.5531616,11.4231567-2.0401001c7.6633911-1.0303345,15.4056396-1.4700928,23.1076126-1.1570435
		c15.3948364,0.5114136,30.6640015,3.6256104,44.7155151,9.442749c-7.4597168-1.4609985-14.895874-2.6739502-22.3670044-3.3161621
		c-3.7312012-0.3310547-7.4581299-0.6168823-11.1900635-0.6757813l-2.7937622-0.076355l-2.7930298-0.008606
		c-0.9304199,0.0028076-1.8598022-0.0189819-2.7893677,0.0036011l-2.7871704,0.0929565
		c-7.425293,0.302002-14.809639,1.0082397-22.099678,2.2579346c-3.6505127,0.5906372-7.2637939,1.375-10.8607178,2.2109375
		l-5.3529053,1.4278564l-2.6766357,0.7106934c-0.8826294,0.269104-1.7526855,0.5800171-2.6312256,0.8627319l-5.2685547,1.7084961
		c-1.7406006,0.6139526-3.4417725,1.3366699-5.1710815,1.9845581c-3.4926758,1.2207031-6.7879028,2.9104614-10.1947021,4.3536377
		c-6.6539917,3.234375-13.1387901,6.8308716-19.4299889,10.8060303
		C39.3261223,176.469986,27.7530632,186.0770416,17.1857414,196.9892731z"/>
</g>
<g>
	<path d="M165.6857452,134.4892731c4.5577393,3.8109741,8.5696411,8.3070068,12.0903931,13.1689453
		c3.5199585,4.8692627,6.5192261,10.151001,8.9480591,15.7116699c0.5650024,1.406189,1.2296143,2.7804565,1.7128906,4.2216187
		l1.4888916,4.3164673l1.2158203,4.4085693c0.2138062,0.7335205,0.3809814,1.4775391,0.5199585,2.2280884l0.453125,2.2451782
		l0.446106,2.2488403c0.1217651,0.7538452,0.1967773,1.5147705,0.296936,2.2722778
		c0.1761475,1.5177002,0.4029541,3.032959,0.5336914,4.5559082c0.1290283,3.053894,0.375,6.1104126,0.1917114,9.1693726
		c-0.0457764,6.1266479-1.0917358,12.2050171-2.4674072,18.1463623l-1.2593994,4.4036255l-0.3165283,1.0987549l-0.3914185,1.0749512
		l-0.7929688,2.1442261l-0.7935791,2.1402588c-0.2715454,0.710083-0.6019287,1.3970947-0.9076538,2.0928345
		c-0.6450806,1.3773193-1.2185059,2.7839966-1.9220581,4.1283569c-2.7050781,5.4321289-6.0377808,10.512146-9.7900391,15.1980591
		c-3.7695923,4.6685791-8.0045776,8.9582062-12.7565308,12.52565c1.8394775-2.3322144,3.5962524-4.6881714,5.2572632-7.0986481
		c1.6300049-2.4343872,3.2188721-4.873291,4.6716919-7.3864746c2.9142456-5.0144043,5.5209351-10.1634521,7.598938-15.4987183
		c2.0575562-5.3391113,3.7596436-10.7765503,4.9351196-16.3257446c0.3026733-1.383606,0.4923706-2.7901611,0.7485352-4.1815186
		l0.3616333-2.0911255c0.1208496-0.6967773,0.1489258-1.4070435,0.2285156-2.109375l0.447937-4.2182617
		c0.1015625-1.4095459,0.0934448-2.8270874,0.152832-4.2393799c0.2099609-2.8267822-0.0214844-5.6531982-0.081665-8.4830933
		c-0.0812988-1.4118652-0.2558594-2.8172607-0.3771362-4.2279663c-0.0728149-0.7040405-0.119812-1.4119873-0.2129517-2.1136475
		l-0.3286133-2.098999l-0.3216553-2.1027222c-0.0946045-0.7039185-0.21698-1.4025879-0.3856201-2.0921021l-0.8847656-4.1707153
		c-0.7467651-2.7427368-1.4471436-5.5103149-2.3908081-8.2108765c-1.8046265-5.4262085-4.0724487-10.7313843-6.739502-15.8810425
		c-1.3050537-2.5942383-2.7900391-5.0957031-4.2860718-7.6151733
		C169.0408478,139.3538361,167.4008331,136.9140778,165.6857452,134.4892731z"/>
</g>
<circle cx="104.6857224" cy="98.489296" r="6"/>
<circle cx="151.68573" cy="153.4893036" r="2.5"/>
<circle cx="164.68573" cy="158.4893036" r="2.5"/>
<circle cx="196.18573" cy="136.9893036" r="6"/>
<path class="st2" d="M19.2352867,103.989296c0,0-1.0882339,15.2352982,18.5,26.1176529
	c-1.0882339,7.6176453-25.0294113,10.8823547-25.0294113,10.8823547S8.3529348,123.5775299,19.2352867,103.989296z"/>
<path class="st2" d="M221.18573,247.9893036c0,0,18,2,29-10c3,18-26,34.9999847-35,33.9999847
	C214.18573,264.9892883,221.18573,259.9892883,221.18573,247.9893036z"/>
</svg>
